<?xml version="1.0"?>
<svg xmlns="http://www.w3.org/2000/svg" xmlns:lc="http://www.librecad.org" xmlns:xlink="http://www.w3.org/1999/xlink" width="811.51784677mm" height="346.66395968mm" viewBox="0 0 811.51784677 346.66395968">
    <g lc:layername="0" lc:is_locked="false" lc:is_construction="false" fill="none" stroke="black" stroke-width="1">
        <path d="M792.89191935,240 L42.89191935,240 L42.89191935,14 L792.89191935,0 L792.89191935,240 L792.89191935,240 Z "/>
        <path d="M192.89191935,240 L192.89191935,10 "/>
        <path d="M792.89191935,240 L792.89191935,192 L42.89191935,192 L42.89191935,240 L792.89191935,240 Z "/>
        <line x1="792.89191935" y1="48" x2="42.89191935" y2="62"/>
        <path d="M792.89191935,240 L792.89191935,230 L192.89191935,230 L192.89191935,240 L792.89191935,240 Z "/>
        <line x1="792.89191935" y1="10" x2="192.89191935" y2="20"/>
        <line x1="782.89191935" y1="230" x2="782.89191935" y2="11"/>
        <line x1="782.89191935" y1="11" x2="782.89191935" y2="10.2"/>
        <line x1="202.89191935" y1="230" x2="202.89191935" y2="19.88"/>
        <line x1="90.89191935" y1="192" x2="90.89191935" y2="61.104"/>
        <line x1="744.89191935" y1="192" x2="744.89191935" y2="48.896"/>
    </g>
    <g lc:layername="10-dim" lc:is_locked="false" lc:is_construction="false" fill="none" stroke="black" stroke-width="1"/>
</svg>
