<?xml version="1.0"?>
<svg xmlns="http://www.w3.org/2000/svg" xmlns:lc="http://www.librecad.org" xmlns:xlink="http://www.w3.org/1999/xlink" width="16.4mm" height="10.9986802mm" viewBox="0 0 16.4 10.9986802">
    <g lc:layername="0" lc:is_locked="false" lc:is_construction="false" fill="none" stroke="black" stroke-width="1">
        <path d="M12.1006592,7.92512648 L12.1006592,5.6993394 L12.1006592,5.2993394 L12.1006592,3.07355229 A1,1 0 0,1 12.39355282,2.36644511 L14.46710745,0.29289282 A1,1 0 0,1 15.17421383,0 L15.4,0 A1,1 0 0,1 16.4,1 L16.4,9.9986802 A1,1 0 0,1 15.4,10.9986802 L15.17421401,10.9986802 A1,1 0 0,1 14.46710741,10.70578717 L12.3935526,8.63223345 A1,1 0 0,1 12.1006592,7.92512648 Z "/>
        <path d="M4.2993394,3.07355214 L4.2993394,5.2993394 L4.2993394,5.6993394 L4.2993394,7.92512664 A1,1 0 0,1 4.00644618,8.63223342 L1.93289262,10.70578698 A1,1 0 0,1 1.22578584,10.9986802 L1,10.9986802 A1,1 0 0,1 0,9.9986802 L0,1 A1,1 0 0,1 1,0 L1.22578601,0 A1,1 0 0,1 1.93289258,0.29289301 L4.00644597,2.36644514 A1,1 0 0,1 4.2993394,3.07355214 Z "/>
    </g>
    <g lc:layername="DEFPOINTS" lc:is_locked="false" lc:is_construction="false" fill="none" stroke="black" stroke-width="1"/>
</svg>
