<?xml version="1.0"?>
<svg xmlns="http://www.w3.org/2000/svg" xmlns:lc="http://www.librecad.org" xmlns:xlink="http://www.w3.org/1999/xlink" width="16.4mm" height="16.4000016mm" viewBox="0 0 16.4 16.4000016">
    <g lc:layername="0" lc:is_locked="false" lc:is_construction="false" fill="none" stroke="black" stroke-width="1">
        <path d="M10.62578617,4.2993408 L8.4,4.2993408 L8,4.2993408 L5.77421241,4.2993408 A1,1 0 0,1 5.06710581,4.00644777 L2.9935526,1.93289565 A1,1 0 0,1 2.7006592,1.22578868 L2.7006592,1 A1,1 0 0,1 3.7006592,0 L12.6993408,0 A1,1 0 0,1 13.6993408,1 L13.6993408,1.22578851 A1,1 0 0,1 13.40644718,1.93289569 L11.33289255,4.00644798 A1,1 0 0,1 10.62578617,4.2993408 Z "/>
        <path d="M12.1006592,10.62578868 L12.1006592,8.4000016 L12.1006592,8.0000016 L12.1006592,5.77421449 A1,1 0 0,1 12.39355282,5.06710731 L14.46710745,2.99355502 A1,1 0 0,1 15.17421383,2.7006622 L15.4,2.7006622 A1,1 0 0,1 16.4,3.7006622 L16.4,12.6993424 A1,1 0 0,1 15.4,13.6993424 L15.17421401,13.6993424 A1,1 0 0,1 14.46710741,13.40644937 L12.3935526,11.33289565 A1,1 0 0,1 12.1006592,10.62578868 Z "/>
        <path d="M5.77421258,12.1006622 L8,12.1006622 L8.4,12.1006622 L10.62578599,12.1006622 A1,1 0 0,1 11.33289259,12.39355523 L13.4064474,14.46710895 A1,1 0 0,1 13.6993408,15.17421592 L13.6993408,15.4000016 A1,1 0 0,1 12.6993408,16.4000016 L3.7006592,16.4000016 A1,1 0 0,1 2.7006592,15.4000016 L2.7006592,15.17421574 A1,1 0 0,1 2.99355239,14.46710899 L5.06710578,12.39355545 A1,1 0 0,1 5.77421258,12.1006622 Z "/>
        <path d="M4.2993394,5.77421434 L4.2993394,8.0000016 L4.2993394,8.4000016 L4.2993394,10.62578884 A1,1 0 0,1 4.00644618,11.33289562 L1.93289262,13.40644918 A1,1 0 0,1 1.22578584,13.6993424 L1,13.6993424 A1,1 0 0,1 0,12.6993424 L0,3.7006622 A1,1 0 0,1 1,2.7006622 L1.22578601,2.7006622 A1,1 0 0,1 1.93289258,2.99355521 L4.00644597,5.06710734 A1,1 0 0,1 4.2993394,5.77421434 Z "/>
    </g>
    <g lc:layername="DEFPOINTS" lc:is_locked="false" lc:is_construction="false" fill="none" stroke="black" stroke-width="1"/>
</svg>
