<?xml version="1.0"?>
<svg xmlns="http://www.w3.org/2000/svg" xmlns:lc="http://www.librecad.org" xmlns:xlink="http://www.w3.org/1999/xlink" width="181.84792547mm" height="97.99079165mm" viewBox="0 0 181.84792547 97.99079165">
    <g lc:layername="0" lc:is_locked="false" lc:is_construction="false" fill="none" stroke="black" stroke-width="1">
        <circle cx="7.99792547" cy="48.49232102" r="2.5512"/>
        <circle cx="47.84792547" cy="48.64232102" r="2.5552"/>
        <circle cx="6.07785149" cy="69.14055468" r="1.6"/>
        <circle cx="28.09969181" cy="47.32224703" r="1.6"/>
        <circle cx="27.89615914" cy="91.16239501" r="1.6"/>
        <circle cx="49.91799946" cy="69.34408736" r="1.6"/>
        <circle cx="27.99792547" cy="69.24232102" r="12"/>
        <circle cx="27.99792547" cy="8.49232102" r="2.6"/>
        <circle cx="87.99792547" cy="28.64232102" r="2.55"/>
        <circle cx="67.99792547" cy="48.49232102" r="2.5512"/>
        <circle cx="107.84792547" cy="48.64232102" r="2.5552"/>
        <circle cx="87.99792547" cy="8.49232102" r="2.6"/>
        <circle cx="137.99792547" cy="48.49232102" r="2.5512"/>
        <circle cx="177.84792547" cy="48.64232102" r="2.5552"/>
        <circle cx="157.99792547" cy="8.49232102" r="2.6"/>
        <circle cx="137.99792547" cy="48.49232102" r="4"/>
        <circle cx="177.84792547" cy="48.64232102" r="4"/>
        <circle cx="157.99792547" cy="8.49232102" r="4"/>
        <path d="M53.38755203,46.30895296 A4,4 0 0,1 53.78199239,47.68371853 L55.98309206,69.69580668 A4,4 0 0,1 54.81820685,72.9353298 L30.6982935,96.83231943 A4,4 0 0,1 25.04150021,96.80605715 L1.15847222,72.70023568 A4,4 0 0,1 0.01718283,69.51460903 L2.05844299,47.56315454 A4,4 0 0,1 2.4635514,46.14466131 L24.43030924,2.21114562 A4,4 0 0,1 31.59372836,2.22723909 L53.38755203,46.30895296 Z "/>
        <path d="M91.93504384,28.86232447 L91.93504384,28.46232447 L91.93504384,26.23653736 A1,1 0 0,1 92.22793746,25.52943018 L94.30149209,23.45587789 A1,1 0 0,1 95.00859847,23.16298507 L95.23438464,23.16298507 A1,1 0 0,1 96.23438464,24.16298507 L96.23438464,33.16166527 A1,1 0 0,1 95.23438464,34.16166527 L95.00859865,34.16166527 A1,1 0 0,1 94.30149206,33.86877224 L92.22793725,31.79521852 A1,1 0 0,1 91.93504384,31.08811155 L91.93504384,28.86232447 "/>
        <path d="M84.13372404,28.46232447 L84.13372404,28.86232447 L84.13372404,31.08811171 A1,1 0 0,1 83.84083082,31.79521849 L81.76727726,33.86877205 A1,1 0 0,1 81.06017048,34.16166527 L80.83438464,34.16166527 A1,1 0 0,1 79.83438464,33.16166527 L79.83438464,24.16298507 A1,1 0 0,1 80.83438464,23.16298507 L81.06017066,23.16298507 A1,1 0 0,1 81.76727722,23.45587808 L83.84083061,25.52943022 A1,1 0 0,1 84.13372404,26.23653721 L84.13372404,28.46232447 "/>
        <path d="M64.7618575,54.49232102 A4,4 0 0,1 61.18414873,48.70346664 L84.42021671,2.23133068 A4,4 0 0,1 91.57563424,2.23133068 L114.81170222,48.70346664 A4,4 0 0,1 111.23399345,54.49232102 L64.7618575,54.49232102 Z "/>
        <path d="M161.57563424,2.23133068 L154.42021671,2.23133068 A4,4 0 0,1 161.57563424,2.23133068 Z "/>
    </g>
    <g lc:layername="DEFPOINTS" lc:is_locked="false" lc:is_construction="false" fill="none" stroke="black" stroke-width="1"/>
</svg>
