<?xml version="1.0"?>
<svg xmlns="http://www.w3.org/2000/svg" xmlns:lc="http://www.librecad.org" xmlns:xlink="http://www.w3.org/1999/xlink" width="20.000002mm" height="20.0000034mm" viewBox="0 0 20.000002 20.0000034">
    <g lc:layername="0" lc:is_locked="false" lc:is_construction="false" fill="none" stroke="black" stroke-width="1">
        <circle cx="10.0000018" cy="10.0000018" r="2.1000002"/>
        <path d="M0.0000002,1.5000002 L0.0000002,5.3600008 L1.8000018,7.1600008 L1.8000018,4.5006624 L3.4400012,4.5006624 L6.0993412,7.1600008 L6.0993412,9.8000018 L6.2993412,10.0000018 L6.0993412,10.2000018 L6.0993412,12.8400026 L3.4400012,15.4993426 L1.8000018,15.4993426 L1.8000018,12.8400026 L0.0000002,14.6400026 L0,18.50000333 A1.49999984,1.49999984 0 0,0 1.5000002,20.0000026 L5.3600008,20.0000026 L7.1600008,18.2000018 L4.500661,18.2000018 L4.500661,16.5600024 L7.1600008,13.9006624 L9.8000018,13.9006624 L10.0000018,13.7006624 L10.2000018,13.9006624 L12.8400012,13.9006624 L15.4993426,16.5600024 L15.4993426,18.2000018 L12.8400012,18.2000018 L14.6400012,20.0000026 L18.50000172,20.0000034 A1.5000001,1.5000001 0 0,0 20.0000018,18.5000032 L20.0000018,14.6400026 L18.2000018,12.8400026 L18.2000018,15.4993426 L16.5600024,15.4993426 L13.900661,12.8400026 L13.900661,10.2000018 L13.700661,10.0000018 L13.900661,9.8000018 L13.900661,7.1600008 L16.5600024,4.5006624 L18.2000018,4.5006624 L18.2000018,7.1600008 L20.0000018,5.3600008 L20.000002,1.5000002 A1.50000006,1.50000006 0 0,0 18.5000018,0.0000002 L14.6400012,0.0000002 L12.8400012,1.8000002 L15.4993426,1.8000002 L15.4993426,3.4400026 L12.8400012,6.099341 L10.2000018,6.099341 L10.0000018,6.299341 L9.8000018,6.099341 L7.1600008,6.099341 L4.500661,3.4400026 L4.500661,1.8000002 L7.1600008,1.8000002 L5.3600008,0.0000002 L1.50000012,0 A1.50000003,1.50000003 0 0,0 0.0000002,1.5000002 Z "/>
    </g>
    <g lc:layername="DEFPOINTS" lc:is_locked="false" lc:is_construction="false" fill="none" stroke="black" stroke-width="1"/>
</svg>
