<?xml version="1.0"?>
<svg xmlns="http://www.w3.org/2000/svg" xmlns:lc="http://www.librecad.org" xmlns:xlink="http://www.w3.org/1999/xlink" width="109.85mm" height="94.41769954mm" viewBox="0 0 109.85 94.41769954">
    <g lc:layername="0" lc:is_locked="false" lc:is_construction="false" fill="none" stroke="black" stroke-width="1">
        <circle cx="5" cy="45" r="2.5512"/>
        <circle cx="44.85" cy="45.15" r="2.5552"/>
        <circle cx="5" cy="5" r="2.5512"/>
        <circle cx="44.85" cy="5.15" r="2.5552"/>
        <circle cx="3.07992601" cy="65.64823366" r="1.6"/>
        <circle cx="25.10176634" cy="43.82992601" r="1.6"/>
        <circle cx="24.89823366" cy="87.67007399" r="1.6"/>
        <circle cx="46.92007399" cy="65.85176634" r="1.6"/>
        <circle cx="25" cy="65.75" r="12"/>
        <circle cx="85" cy="25.15" r="2.55"/>
        <circle cx="65" cy="45" r="2.5512"/>
        <circle cx="104.85" cy="45.15" r="2.5552"/>
        <circle cx="65" cy="5" r="2.5512"/>
        <circle cx="104.85" cy="5.15" r="2.5552"/>
        <path d="M49.85,3 A3,3 0 0,0 46.85,0 L3,0 A3,3 0 0,0 0,3 L0,69.33274868 A3,3 0 0,0 0.86885416,71.4441978 L22.74968907,93.52914867 A3,3 0 0,0 26.99228403,93.54884538 L48.96144913,71.78272611 A3,3 0 0,0 49.85,69.65158027 L49.85,3 Z "/>
        <path d="M88.93711837,25.37000345 L88.93711837,24.97000345 L88.93711837,22.74421634 A1,1 0 0,1 89.23001198,22.03710916 L91.30356662,19.96355687 A1,1 0 0,1 92.010673,19.67066405 L92.23645917,19.67066405 A1,1 0 0,1 93.23645917,20.67066405 L93.23645917,29.66934425 A1,1 0 0,1 92.23645917,30.66934425 L92.01067318,30.66934425 A1,1 0 0,1 91.30356658,30.37645122 L89.23001177,28.3028975 A1,1 0 0,1 88.93711837,27.59579053 L88.93711837,25.37000345 "/>
        <path d="M81.13579857,24.97000345 L81.13579857,25.37000345 L81.13579857,27.59579069 A1,1 0 0,1 80.84290535,28.30289747 L78.76935179,30.37645103 A1,1 0 0,1 78.062245,30.66934425 L77.83645917,30.66934425 A1,1 0 0,1 76.83645917,29.66934425 L76.83645917,20.67066405 A1,1 0 0,1 77.83645917,19.67066405 L78.06224518,19.67066405 A1,1 0 0,1 78.76935175,19.96355706 L80.84290514,22.0371092 A1,1 0 0,1 81.13579857,22.74421619 L81.13579857,24.97000345 "/>
        <path d="M109.85,3 A3,3 0 0,0 106.85,0 L63,0 A3,3 0 0,0 60,3 L60,47.15 A3,3 0 0,0 63,50.15 L106.85,50.15 A3,3 0 0,0 109.85,47.15 L109.85,3 "/>
    </g>
    <g lc:layername="DEFPOINTS" lc:is_locked="false" lc:is_construction="false" fill="none" stroke="black" stroke-width="1"/>
</svg>
