<?xml version="1.0"?>
<svg xmlns="http://www.w3.org/2000/svg" xmlns:lc="http://www.librecad.org" xmlns:xlink="http://www.w3.org/1999/xlink" width="80mm" height="86mm" viewBox="0 0 80 86">
    <g lc:layername="0" lc:is_locked="false" lc:is_construction="false" fill="none" stroke="black" stroke-width="1">
        <circle cx="2.24999933" cy="2.99999897" r="1.6"/>
        <circle cx="2.24999933" cy="82.99999897" r="1.6"/>
        <circle cx="77.74999933" cy="2.99999897" r="1.6"/>
        <circle cx="77.74999933" cy="82.99999897" r="1.6"/>
        <path d="M78,0 A2,2 0 0,1 80,2 L80,84 A2,2 0 0,1 78,86 L2,86 A2,2 0 0,1 0,84 L0,2 A2,2 0 0,1 2,0 L78,0 Z "/>
        <path d="M74.24999933,56.40476087 A0,0 0 1,0 74.24999933,56.40476087 Z "/>
        <path d="M68.68549253,84 A0,0 0 1,0 68.68549253,84 Z "/>
        <path d="M11.41450747,84 A0,0 0 1,0 11.41450747,84 Z "/>
        <path d="M74.24999933,56.40476087 L74.24999933,20.99999897 L74.24999933,18.99999897 A50.96153846,50.96153846 0 0,0 6.24999933,18.99999897 L6.24999933,56.99999897 L21,72 L21,84 A0,0 0 1,0 21,84 L59,84 L59,72 L74.24999933,56.40476087 Z "/>
        <path d="M59,84 A0,0 0 1,0 59,84 A0,0 0 1,0 59,84 A0,0 0 1,0 59,84 Z "/>
    </g>
    <g lc:layername="dimensions" lc:is_locked="false" lc:is_construction="false" fill="none" stroke="black" stroke-width="1"/>
</svg>
