<?xml version="1.0"?>
<svg xmlns="http://www.w3.org/2000/svg" xmlns:lc="http://www.librecad.org" xmlns:xlink="http://www.w3.org/1999/xlink" width="72mm" height="82.00000103mm" viewBox="0 0 72 82.00000103">
    <g lc:layername="0" lc:is_locked="false" lc:is_construction="false" fill="none" stroke="black" stroke-width="1">
        <path d="M70,52.4047619 A0,0 0 1,0 70,52.4047619 Z "/>
        <path d="M70,52.4047619 L70,17 L70,15 A50.96153846,50.96153846 0 0,0 2,15 L2,53 L16.75000067,68.00000103 L16.75000067,80.00000103 A0,0 0 1,0 16.75000067,80.00000103 L54.75000067,80.00000103 L54.75000067,68.00000103 L70,52.4047619 "/>
        <path d="M54.75000067,80.00000103 A0,0 0 1,0 54.75000067,80.00000103 A0,0 0 1,0 54.75000067,80.00000103 A0,0 0 1,0 54.75000067,80.00000103 Z "/>
        <path d="M72,53.22010677 A0,0 0 1,0 72,53.22010677 L56.75000067,68.81534589 A0,0 0 1,0 56.75000067,68.81534589 L56.75000067,82.00000103 L14.75000067,82.00000103 A0,0 0 1,0 14.75000067,82.00000103 L14.75000067,68.81860027 A0,0 0 1,1 14.75000067,68.81860027 L0,53.81859924 A0,0 0 0,1 0,53.81859924 L0,14.11666034 A52.96153846,52.96153846 0 0,1 72,14.11666034 A0,0 0 0,1 72,14.11666034 L72,53.22010677 Z "/>
        <path d="M56.75000067,82.00000103 A0,0 0 1,0 56.75000067,82.00000103 Z "/>
    </g>
    <g lc:layername="dimensions" lc:is_locked="false" lc:is_construction="false" fill="none" stroke="black" stroke-width="1"/>
</svg>
